<svg xmlns="http://www.w3.org/2000/svg" width="29.26" height="27.538" viewBox="0 0 29.26 27.538">
  <g id="Cart_Icon" data-name="Cart Icon" transform="translate(-1161.627 -16)">
    <g id="shopping-cart-empty-side-view" transform="translate(1161.627 2.852)">
      <path id="Path_28" data-name="Path 28" d="M29.091,18.4a.938.938,0,0,0-.73-.4l-18.15-.782a.939.939,0,0,0-.081,1.876l16.921.729L23.725,30.2H8.919L6.244,15.638a.939.939,0,0,0-.58-.7L1.282,13.213A.939.939,0,1,0,.6,14.961l3.9,1.53,2.722,14.82a.939.939,0,0,0,.924.769h.452L7.557,34.945a.782.782,0,0,0,.736,1.047h.723a2.816,2.816,0,1,0,4.186,0h6.141a2.816,2.816,0,1,0,4.186,0h.88a.782.782,0,1,0,0-1.565h-15l.845-2.347H24.409a.938.938,0,0,0,.894-.652l3.912-12.2A.937.937,0,0,0,29.091,18.4ZM11.109,39.122a1.252,1.252,0,1,1,1.252-1.252A1.253,1.253,0,0,1,11.109,39.122Zm10.327,0a1.252,1.252,0,1,1,1.252-1.252A1.253,1.253,0,0,1,21.436,39.122Z" transform="translate(0 0)"/>
    </g>
  </g>
</svg>
