<svg xmlns="http://www.w3.org/2000/svg" width="152.22" height="142.068" viewBox="0 0 152.22 142.068">
  <g id="like" transform="translate(0 0)">
    <g id="Group_135" data-name="Group 135" transform="translate(0 0)">
      <g id="Group_134" data-name="Group 134">
        <path id="Path_86" data-name="Path 86" d="M55.926,332.8H35.63a5.074,5.074,0,0,1-5.074-5.074V246.542a5.074,5.074,0,0,1,5.074-5.074h20.3A5.074,5.074,0,0,1,61,246.542v81.182A5.074,5.074,0,0,1,55.926,332.8Z" transform="translate(-30.556 -241.468)" fill=""/>
      </g>
    </g>
    <g id="Group_137" data-name="Group 137" transform="translate(40.592 0)">
      <g id="Group_136" data-name="Group 136" transform="translate(0)">
        <path id="Path_87" data-name="Path 87" d="M262.321,169.052c-.895,7.871-8.248,13.45-16.17,13.45H206.593c3.362,6.019,5.166,23.045,5.086,30A21.129,21.129,0,0,1,190.5,233.24h-4.187a5.071,5.071,0,0,1-5.074-5.074c0-11.733-4.569-32.911-13.185-41.527-5.8-5.8-10.758-7.9-17.259-11.15V99.356c9.953-3.317,22.591-8.184,41.854-8.184h33.192c10.937,0,19.454,10.129,15.217,20.83A15.225,15.225,0,0,1,251.2,132.3a15.23,15.23,0,0,1,7.334,24.834A15.19,15.19,0,0,1,262.321,169.052Z" transform="translate(-150.794 -91.172)" fill=""/>
      </g>
    </g>
  </g>
</svg>
