<svg xmlns="http://www.w3.org/2000/svg" width="41.886" height="40.142" viewBox="0 0 41.886 40.142">
  <path id="github" d="M20.943.5A20.762,20.762,0,0,0,0,21.08,20.614,20.614,0,0,0,14.32,40.606c1.047.194,1.431-.443,1.431-.99,0-.489-.017-1.784-.026-3.5C9.9,37.358,8.67,33.356,8.67,33.356a5.486,5.486,0,0,0-2.33-3.011c-1.9-1.276.147-1.25.147-1.25a4.381,4.381,0,0,1,3.208,2.12c1.867,3.147,4.9,2.237,6.1,1.712a4.357,4.357,0,0,1,1.326-2.752c-4.651-.515-9.54-2.285-9.54-10.17a7.863,7.863,0,0,1,2.155-5.522A7.2,7.2,0,0,1,9.92,9.038s1.754-.552,5.759,2.11a20.08,20.08,0,0,1,10.472,0c3.979-2.662,5.733-2.11,5.733-2.11a7.4,7.4,0,0,1,.209,5.447,7.9,7.9,0,0,1,2.147,5.522c0,7.906-4.9,9.646-9.555,10.152A4.883,4.883,0,0,1,26.1,33.967c0,2.754-.026,4.967-.026,5.635,0,.539.367,1.183,1.44.977a20.552,20.552,0,0,0,14.374-19.5A20.765,20.765,0,0,0,20.943.5Z" transform="translate(0 -0.5)" fill="#5465ad"/>
</svg>
