<svg xmlns="http://www.w3.org/2000/svg" width="87.109" height="65.33" viewBox="0 0 87.109 65.33">
  <defs>
    <style>
      .cls-1 {
        <!-- fill: #85878f; -->
      }
    </style>
  </defs>
  <g id="visibility_1_" data-name="visibility(1)" transform="translate(-0.001 0)">
    <g id="Group_19" data-name="Group 19" transform="translate(32.76 21.868)">
      <g id="Group_18" data-name="Group 18" transform="translate(0 0)">
        <path id="Path_16" data-name="Path 16" class="cls-1" d="M213.61,193.073a1.815,1.815,0,0,0-2.566,2.566,10.887,10.887,0,1,1-15.4,15.4,1.815,1.815,0,0,0-2.566,2.566,14.516,14.516,0,1,0,20.529-20.529Z" transform="translate(-192.55 -192.542)"/>
      </g>
    </g>
    <g id="Group_21" data-name="Group 21" transform="translate(29.037 18.145)">
      <g id="Group_20" data-name="Group 20" transform="translate(0 0)">
        <path id="Path_17" data-name="Path 17" class="cls-1" d="M187.716,170.909a14.373,14.373,0,0,0-17.048,14.268,14.211,14.211,0,0,0,.254,2.53,1.817,1.817,0,0,0,1.782,1.5,1.608,1.608,0,0,0,.319-.029,1.817,1.817,0,0,0,1.47-2.1,10.515,10.515,0,0,1-.2-1.9,10.758,10.758,0,0,1,12.787-10.7,1.813,1.813,0,0,0,.632-3.572Z" transform="translate(-170.668 -170.659)"/>
      </g>
    </g>
    <g id="Group_23" data-name="Group 23" transform="translate(22.703 12.327)">
      <g id="Group_22" data-name="Group 22" transform="translate(0 0)">
        <path id="Path_18" data-name="Path 18" class="cls-1" d="M197.411,155.626c-.41-.486-10.228-11.945-23.77-18.961a1.816,1.816,0,0,0-1.666,3.227c10.431,5.4,18.765,13.829,21.614,16.907-4.326,4.686-21.353,21.777-39.3,21.777a41.846,41.846,0,0,1-18.249-4.374,1.813,1.813,0,1,0-1.575,3.267,45.383,45.383,0,0,0,19.825,4.737c22.362,0,42.288-23.244,43.126-24.235A1.813,1.813,0,0,0,197.411,155.626Z" transform="translate(-133.435 -136.461)"/>
      </g>
    </g>
    <g id="Group_25" data-name="Group 25" transform="translate(0.001 7.256)">
      <g id="Group_24" data-name="Group 24" transform="translate(0 0)">
        <path id="Path_19" data-name="Path 19" class="cls-1" d="M55.463,108.75a37.474,37.474,0,0,0-11.909-2.091c-22.362,0-42.288,23.244-43.126,24.235a1.815,1.815,0,0,0-.1,2.21,67.376,67.376,0,0,0,16.649,15.785,1.8,1.8,0,0,0,2.512-.512,1.81,1.81,0,0,0-.508-2.512,66.371,66.371,0,0,1-14.819-13.7c4.178-4.537,21.316-21.875,39.4-21.875a33.971,33.971,0,0,1,10.751,1.9,1.79,1.79,0,0,0,2.3-1.14A1.811,1.811,0,0,0,55.463,108.75Z" transform="translate(0 -106.659)"/>
      </g>
    </g>
    <g id="Group_27" data-name="Group 27" transform="translate(10.889 0)">
      <g id="Group_26" data-name="Group 26">
        <path id="Path_20" data-name="Path 20" class="cls-1" d="M128.8,64.539a1.816,1.816,0,0,0-2.566,0l-61.7,61.7a1.815,1.815,0,0,0,2.566,2.566l61.7-61.7A1.816,1.816,0,0,0,128.8,64.539Z" transform="translate(-63.996 -64.008)"/>
      </g>
    </g>
  </g>
</svg>
