<svg id="instagram_2_" data-name="instagram(2)" xmlns="http://www.w3.org/2000/svg" width="41.886" height="41.887" viewBox="0 0 41.886 41.887">
  <path id="Path_47" data-name="Path 47" d="M16.593,5.838A10.747,10.747,0,1,0,27.341,16.585,10.746,10.746,0,0,0,16.593,5.838Zm0,17.723a6.976,6.976,0,1,1,6.976-6.976A6.974,6.974,0,0,1,16.593,23.561Z" transform="translate(4.357 4.35)" fill="#5465ad"/>
  <path id="Path_48" data-name="Path 48" d="M29.579.132c-3.854-.18-13.4-.171-17.255,0C8.934.291,5.945,1.11,3.534,3.52-.494,7.548.021,12.976.021,20.936c0,8.147-.454,13.449,3.513,17.416,4.044,4.042,9.55,3.513,17.416,3.513,8.07,0,10.855.005,13.709-1.1,3.88-1.506,6.808-4.974,7.094-11.2.182-3.855.171-13.4,0-17.255C41.408,4.954,37.462.5,29.579.132Zm6.1,35.554c-2.641,2.641-6.3,2.4-14.779,2.4-8.726,0-12.226.129-14.779-2.431C3.18,32.734,3.712,28.034,3.712,20.908c0-9.643-.99-16.587,8.688-17.083,2.223-.079,2.878-.1,8.475-.1l.079.052c9.3,0,16.6-.974,17.035,8.7.1,2.208.122,2.871.122,8.459,0,8.625.162,12.145-2.433,14.753Z" transform="translate(0 -0.001)" fill="#5465ad"/>
  <circle id="Ellipse_4" data-name="Ellipse 4" cx="2.511" cy="2.511" r="2.511" transform="translate(29.612 7.252)" fill="#5465ad"/>
</svg>
