<svg xmlns="http://www.w3.org/2000/svg" width="152.217" height="142.069" viewBox="0 0 152.217 142.069">
  <g id="like" transform="translate(0 0)">
    <g id="Group_135" data-name="Group 135" transform="translate(0 50.739)">
      <g id="Group_134" data-name="Group 134">
        <path id="Path_86" data-name="Path 86" d="M55.926,241.468H35.63a5.074,5.074,0,0,0-5.074,5.074v81.182A5.074,5.074,0,0,0,35.63,332.8h20.3A5.074,5.074,0,0,0,61,327.724V246.542A5.073,5.073,0,0,0,55.926,241.468Z" transform="translate(-30.556 -241.468)" fill=""/>
      </g>
    </g>
    <g id="Group_137" data-name="Group 137" transform="translate(40.592 0)">
      <g id="Group_136" data-name="Group 136" transform="translate(0)">
        <path id="Path_87" data-name="Path 87" d="M262.318,155.361c-.895-7.871-8.247-13.45-16.169-13.45H206.592c3.362-6.019,5.166-23.045,5.086-30A21.128,21.128,0,0,0,190.5,91.172h-4.187a5.071,5.071,0,0,0-5.074,5.074c0,11.733-4.568,32.911-13.185,41.528-5.8,5.8-10.757,7.9-17.258,11.15v76.133c9.953,3.317,22.591,8.184,41.853,8.184h33.191c10.936,0,19.454-10.129,15.216-20.83a15.225,15.225,0,0,0,10.147-20.3,15.23,15.23,0,0,0,7.334-24.834A15.19,15.19,0,0,0,262.318,155.361Z" transform="translate(-150.794 -91.172)" fill=""/>
      </g>
    </g>
  </g>
</svg>
