<svg id="linkedin" xmlns="http://www.w3.org/2000/svg" width="41.886" height="41.886" viewBox="0 0 41.886 41.886">
  <path id="Path_49" data-name="Path 49" d="M35.549,36.242v0h.01V20.878c0-7.515-1.618-13.3-10.4-13.3a9.12,9.12,0,0,0-8.215,4.515h-.122V8.276H8.489V36.24h8.674V22.393c0-3.646.691-7.171,5.206-7.171,4.449,0,4.515,4.161,4.515,7.405V36.242Z" transform="translate(6.326 5.645)" fill="#5465ad"/>
  <path id="Path_50" data-name="Path 50" d="M.4,7.977H9.08V35.941H.4Z" transform="translate(0.295 5.945)" fill="#5465ad"/>
  <path id="Path_51" data-name="Path 51" d="M5.03,0a5.053,5.053,0,1,0,5.03,5.03A5.031,5.031,0,0,0,5.03,0Z" fill="#5465ad"/>
</svg>
