<svg xmlns="http://www.w3.org/2000/svg" width="89.178" height="49.131" viewBox="0 0 89.178 49.131">
  <defs>
    <style>
      .cls-1 {
        <!-- fill: #85878f; -->
      }
    </style>
  </defs>
  <g id="visibility" transform="translate(0 0)">
    <g id="Group_29" data-name="Group 29" transform="translate(0 0)">
      <g id="Group_28" data-name="Group 28" transform="translate(0 0)">
        <path id="Path_21" data-name="Path 21" class="cls-1" d="M88.848,130.231c-.7-.965-17.579-23.569-44.259-23.569C21.7,106.662,1.3,129.136.438,130.094a1.687,1.687,0,0,0,0,2.267c.858.958,21.258,23.432,44.151,23.432s43.293-22.474,44.151-23.432A1.679,1.679,0,0,0,88.848,130.231ZM44.589,152.284c-18.352,0-35.8-16.529-40.235-21.056,4.426-4.531,21.856-21.056,40.235-21.056,21.474,0,36.63,16.5,40.331,20.961C80.647,135.516,63.1,152.284,44.589,152.284Z" transform="translate(0 -106.662)"/>
      </g>
    </g>
    <g id="Group_31" data-name="Group 31" transform="translate(29.365 9.341)">
      <g id="Group_30" data-name="Group 30">
        <path id="Path_22" data-name="Path 22" class="cls-1" d="M185.886,170.662a15.224,15.224,0,1,0,15.224,15.224A15.239,15.239,0,0,0,185.886,170.662Zm0,26.642A11.418,11.418,0,1,1,197.3,185.886,11.432,11.432,0,0,1,185.886,197.3Z" transform="translate(-170.662 -170.662)"/>
      </g>
    </g>
  </g>
</svg>
