<svg xmlns="http://www.w3.org/2000/svg" width="41.886" height="34.032" viewBox="0 0 41.886 34.032">
  <path id="twitter_2_" data-name="twitter(2)" d="M37.582,10.737a17.141,17.141,0,0,0,4.3-4.457v0a17.934,17.934,0,0,1-4.948,1.356,8.541,8.541,0,0,0,3.778-4.745,17.182,17.182,0,0,1-5.445,2.079,8.586,8.586,0,0,0-14.854,5.871,8.842,8.842,0,0,0,.2,1.958,24.312,24.312,0,0,1-17.7-8.983A8.587,8.587,0,0,0,5.555,15.291a8.488,8.488,0,0,1-3.88-1.058v.094a8.627,8.627,0,0,0,6.88,8.438,8.539,8.539,0,0,1-2.251.283A7.579,7.579,0,0,1,4.679,22.9,8.672,8.672,0,0,0,12.7,28.884,17.261,17.261,0,0,1,2.054,32.546,16.241,16.241,0,0,1,0,32.429a24.182,24.182,0,0,0,13.173,3.854A24.273,24.273,0,0,0,37.582,10.737Z" transform="translate(0 -2.25)" fill="#5465ad"/>
</svg>
